<svg width="18" height="17" viewBox="0 0 18 17" fill="none" xmlns="http://www.w3.org/2000/svg">
<path d="M5.00333 8.45261H12.9964M1.00681 12.9203V3.98532C1.00681 2.94281 1.00681 2.42116 1.22461 2.02298C1.41619 1.67272 1.72166 1.38816 2.09766 1.2097C2.52511 1.00682 3.08509 1.00682 4.20422 1.00682H13.7959C14.915 1.00682 15.4743 1.00682 15.9017 1.2097C16.2777 1.38816 16.5837 1.67272 16.7753 2.02298C16.9931 2.42116 16.9931 2.94242 16.9931 3.98493V12.9199C16.9931 13.9624 16.9931 14.4837 16.7753 14.8819C16.5837 15.2321 16.2777 15.5173 15.9017 15.6957C15.4747 15.8984 14.9162 15.8984 13.7992 15.8984H4.20094C3.084 15.8984 2.52469 15.8984 2.09766 15.6957C1.72166 15.5173 1.41619 15.2322 1.22461 14.8819C1.00681 14.4838 1.00681 13.9628 1.00681 12.9203Z" stroke="#404040" stroke-width="2" stroke-linecap="round" stroke-linejoin="round"/>
</svg>
