<svg width="42" height="43" viewBox="0 0 42 43" fill="none" xmlns="http://www.w3.org/2000/svg">
<path d="M26.25 30.4583V32.25C26.25 35.2185 23.8995 37.625 21 37.625C18.1005 37.625 15.75 35.2185 15.75 32.25V30.4585M26.25 30.4583L15.75 30.4585M26.25 30.4583H33.25C34.2165 30.4583 35 29.6562 35 28.6667V27.6169C35 27.1417 34.8154 26.6862 34.4873 26.3501L33.5935 25.435C33.3735 25.2098 33.25 24.9041 33.25 24.5856V17.9167C33.25 17.6006 33.2389 17.287 33.2158 16.978M15.75 30.4585L8.75 30.4586C7.78351 30.4586 7 29.6558 7 28.6663V27.6169C7 27.1417 7.18452 26.6867 7.5127 26.3506L8.40649 25.4342C8.62643 25.209 8.75 24.9046 8.75 24.586V17.9166C8.75 10.9901 14.2345 5.37501 21 5.37501C22.2453 5.37501 23.4472 5.56526 24.5795 5.91891M33.2158 16.978C35.327 15.7439 36.75 13.4171 36.75 10.75C36.75 6.79197 33.616 3.58334 29.75 3.58334C27.7021 3.58334 25.8596 4.48371 24.5795 5.91891M33.2158 16.978C32.194 17.5753 31.0109 17.9167 29.75 17.9167C25.884 17.9167 22.75 14.7081 22.75 10.75C22.75 8.88865 23.4431 7.19302 24.5795 5.91891M33.2158 16.978C33.2158 16.978 33.2158 16.978 33.2158 16.978ZM24.5795 5.91891C24.5803 5.91916 24.5811 5.91941 24.582 5.91967" stroke="#3D405B" stroke-width="2" stroke-linecap="round" stroke-linejoin="round"/>
</svg>
