<svg width="32" height="33" viewBox="0 0 32 33" fill="none" xmlns="http://www.w3.org/2000/svg">
<path d="M1 14.0627C1 13.4764 1.2573 12.9196 1.70384 12.5396L14.7038 1.47685C15.451 0.841041 16.549 0.841039 17.2962 1.47685L30.2962 12.5396C30.7427 12.9196 31 13.4764 31 14.0627V29.3738C31 30.4784 30.1046 31.3738 29 31.3738H21.75C20.6454 31.3738 19.75 30.4784 19.75 29.3738V22.4327C19.75 21.3281 18.8546 20.4327 17.75 20.4327H14.25C13.1454 20.4327 12.25 21.3281 12.25 22.4327V29.3738C12.25 30.4784 11.3546 31.3738 10.25 31.3738H3C1.89543 31.3738 1 30.4784 1 29.3738V14.0627Z" fill="#77D4B3" stroke="#171818" stroke-width="2" stroke-linejoin="round"/>
</svg>
