<svg width="20" height="20" viewBox="0 0 20 20" fill="none" xmlns="http://www.w3.org/2000/svg">
<path fill-rule="evenodd" clip-rule="evenodd" d="M18.3334 10C18.3334 14.6024 14.6025 18.3333 10.0001 18.3333C5.39771 18.3333 1.66675 14.6024 1.66675 10C1.66675 5.39763 5.39771 1.66667 10.0001 1.66667C14.6025 1.66667 18.3334 5.39763 18.3334 10ZM10.0511 3.75001C9.67797 3.75001 9.37549 4.05248 9.37549 4.4256V5.32213C9.32476 5.33319 9.27409 5.345 9.22348 5.35757C8.80416 5.46174 8.42764 5.62632 8.09389 5.85132C7.76014 6.07632 7.49058 6.36382 7.2852 6.71382C7.07982 7.06382 6.97713 7.48465 6.97713 7.97632C6.97713 8.37632 7.04345 8.7159 7.17609 8.99507C7.30874 9.27424 7.48416 9.51174 7.70238 9.70757C7.9206 9.90341 8.16877 10.0638 8.44689 10.1888C8.72501 10.3138 9.00954 10.4222 9.3005 10.5138C9.60002 10.6055 9.86744 10.6909 10.1028 10.7701C10.3381 10.8492 10.5349 10.9367 10.6932 11.0326C10.8516 11.1284 10.9735 11.2347 11.0591 11.3513C11.1447 11.468 11.1874 11.6097 11.1874 11.7763C11.1874 11.9513 11.1532 12.1013 11.0848 12.2263C11.0163 12.3513 10.9243 12.4513 10.8088 12.5263C10.6932 12.6013 10.5585 12.6555 10.4044 12.6888C10.2504 12.7222 10.0921 12.7388 9.92948 12.7388C9.57006 12.7388 9.20851 12.6492 8.84481 12.4701C8.48112 12.2909 8.18802 12.068 7.96553 11.8013L6.52786 13.2263C6.93007 13.6347 7.43496 13.9492 8.04254 14.1701C8.47598 14.3276 8.92029 14.429 9.37549 14.4741V15.5744C9.37549 15.9475 9.67797 16.25 10.0511 16.25C10.4242 16.25 10.7267 15.9475 10.7267 15.5744V14.4367C10.8951 14.4089 11.0615 14.3721 11.2259 14.3263C11.6453 14.2097 12.0175 14.0305 12.3427 13.7888C12.6679 13.5472 12.9268 13.2409 13.1193 12.8701C13.3119 12.4992 13.4081 12.0597 13.4081 11.5513C13.4081 11.1097 13.3183 10.7409 13.1386 10.4451C12.9589 10.1492 12.7321 9.90132 12.4582 9.70132C12.1844 9.50132 11.8806 9.34091 11.5469 9.22007C11.2131 9.09924 10.8922 8.98882 10.5841 8.88882C10.3702 8.82215 10.1777 8.75757 10.0065 8.69507C9.83535 8.63257 9.68773 8.56382 9.56365 8.48882C9.43956 8.41382 9.34543 8.32632 9.28125 8.22632C9.21707 8.12632 9.18498 8.00132 9.18498 7.85132C9.18498 7.67632 9.22562 7.53257 9.30692 7.42007C9.38822 7.30757 9.48877 7.2159 9.60857 7.14507C9.72838 7.07424 9.86316 7.02632 10.0129 7.00132C10.1627 6.97632 10.3103 6.96382 10.4558 6.96382C10.7382 6.96382 11.0313 7.03257 11.3351 7.17007C11.6389 7.30757 11.8849 7.49299 12.0731 7.72632L13.4723 6.28882C13.0701 5.93049 12.6016 5.65966 12.0667 5.47632C11.6123 5.32056 11.1656 5.23097 10.7267 5.20754V4.4256C10.7267 4.05248 10.4242 3.75001 10.0511 3.75001Z" fill="#EEA734"/>
</svg>
