<svg width="22" height="17" viewBox="0 0 22 17" fill="none" xmlns="http://www.w3.org/2000/svg">
<path d="M0.785715 3.08209H21.2143C21.6483 3.08209 22 2.77546 22 2.39718V0.684908C22 0.306625 21.6483 0 21.2143 0H0.785715C0.351755 0 0 0.306625 0 0.684908V2.39718C0 2.77546 0.351755 3.08209 0.785715 3.08209ZM0.785715 9.93116H21.2143C21.6483 9.93116 22 9.62454 22 9.24626V7.53399C22 7.1557 21.6483 6.84908 21.2143 6.84908H0.785715C0.351755 6.84908 0 7.1557 0 7.53399V9.24626C0 9.62454 0.351755 9.93116 0.785715 9.93116ZM0.785715 16.7802H21.2143C21.6483 16.7802 22 16.4736 22 16.0953V14.3831C22 14.0048 21.6483 13.6982 21.2143 13.6982H0.785715C0.351755 13.6982 0 14.0048 0 14.3831V16.0953C0 16.4736 0.351755 16.7802 0.785715 16.7802Z" fill="white"/>
</svg>
