<svg width="25" height="25" viewBox="0 0 25 25" fill="none" xmlns="http://www.w3.org/2000/svg">
<path d="M20.8334 13.25C21.2476 13.25 21.5834 12.9142 21.5834 12.5C21.5834 12.0858 21.2476 11.75 20.8334 11.75V13.25ZM4.16669 11.75C3.75247 11.75 3.41669 12.0858 3.41669 12.5C3.41669 12.9142 3.75247 13.25 4.16669 13.25V11.75ZM7.8054 18.241C8.09959 18.5326 8.57446 18.5305 8.86604 18.2363C9.15763 17.9421 9.15551 17.4672 8.86131 17.1756L7.8054 18.241ZM6.49693 15.8882L7.02489 15.3555L6.49693 15.8882ZM6.49693 9.11177L5.96897 8.57908V8.57908L6.49693 9.11177ZM8.86131 7.82435C9.15551 7.53276 9.15763 7.05789 8.86605 6.7637C8.57446 6.4695 8.09959 6.46738 7.8054 6.75897L8.86131 7.82435ZM4.18741 12.8264L3.44342 12.9212L3.44342 12.9212L4.18741 12.8264ZM4.18741 12.1736L3.44342 12.0788L3.44342 12.0788L4.18741 12.1736ZM20.8334 11.75H4.16669V13.25H20.8334V11.75ZM8.86131 17.1756L7.02489 15.3555L5.96897 16.4209L7.8054 18.241L8.86131 17.1756ZM7.02489 9.64446L8.86131 7.82435L7.8054 6.75897L5.96897 8.57908L7.02489 9.64446ZM7.02489 15.3555C6.2801 14.6174 5.76733 14.1075 5.42002 13.6751C5.08222 13.2544 4.9631 12.9803 4.93139 12.7315L3.44342 12.9212C3.52447 13.557 3.82785 14.0881 4.25049 14.6143C4.66362 15.1287 5.24924 15.7076 5.96897 16.4209L7.02489 15.3555ZM5.96897 8.57908C5.24924 9.29242 4.66362 9.87123 4.25049 10.3857C3.82785 10.9119 3.52447 11.443 3.44342 12.0788L4.93139 12.2684C4.9631 12.0197 5.08222 11.7455 5.42002 11.3249C5.76733 10.8924 6.2801 10.3826 7.02489 9.64446L5.96897 8.57908ZM4.93139 12.7316C4.91179 12.5778 4.91179 12.4222 4.93139 12.2684L3.44342 12.0788C3.40777 12.3585 3.40777 12.6415 3.44342 12.9212L4.93139 12.7316Z" fill="#387660"/>
</svg>
