<svg width="24" height="25" viewBox="0 0 24 25" fill="none" xmlns="http://www.w3.org/2000/svg">
<path fill-rule="evenodd" clip-rule="evenodd" d="M22.4685 4.70058C22.792 4.43534 22.8444 3.95154 22.5857 3.61999C22.3269 3.28843 21.855 3.23468 21.5315 3.49992L18.2062 6.22685C16.529 4.68282 14.3897 3.33145 12 3.33145C9.85907 3.33145 7.92327 4.41699 6.35175 5.73596C4.77166 7.06213 3.47964 8.69115 2.61144 9.93082L2.53984 10.0329C2.01718 10.7773 1.58695 11.3901 1.58694 12.3007C1.58694 13.2113 2.01709 13.824 2.53964 14.5683L2.61121 14.6704C3.15751 15.4504 3.86909 16.3809 4.71226 17.2925L1.53151 19.9009C1.20806 20.1662 1.15562 20.65 1.41438 20.9815C1.67313 21.3131 2.1451 21.3668 2.46855 21.1016L22.4685 4.70058ZM12 4.86905C13.7777 4.86905 15.5024 5.85239 17.0173 7.20179L14.4006 9.34761C13.7506 8.792 12.9134 8.45677 12 8.45677C9.92896 8.45677 8.25003 10.1778 8.25003 12.3008C8.25003 12.9316 8.39871 13.5278 8.66192 14.0536L5.88803 16.3284C5.06702 15.4524 4.36802 14.5423 3.82974 13.7737C3.20595 12.883 3.08694 12.6682 3.08694 12.3007C3.08695 11.9332 3.206 11.7184 3.82995 10.8275C4.65922 9.64343 5.86351 8.13299 7.30203 6.92564C8.74913 5.71109 10.3543 4.86905 12 4.86905ZM12 9.99436C12.4362 9.99436 12.8433 10.1213 13.1884 10.3417L9.87436 13.0594C9.79377 12.822 9.75003 12.5669 9.75003 12.3008C9.75003 11.027 10.7574 9.99436 12 9.99436Z" fill="#2D264B"/>
<path d="M20.3954 8.60106C20.1332 8.27229 19.6608 8.22359 19.34 8.49228C19.0193 8.76096 18.9718 9.2453 19.2339 9.57406C19.5844 10.0137 19.8981 10.4392 20.17 10.8274C20.7941 11.7184 20.9131 11.9332 20.9131 12.3007C20.9131 12.6683 20.7941 12.883 20.1701 13.774C19.3408 14.9581 18.1365 16.4685 16.698 17.6759C15.2509 18.8904 13.6458 19.7325 12 19.7325C10.5952 19.7325 9.21821 19.1195 7.93756 18.1766C7.60113 17.9289 7.13252 18.0077 6.89088 18.3525C6.64923 18.6974 6.72607 19.1777 7.0625 19.4254C8.48703 20.4743 10.1676 21.27 12 21.27C14.141 21.27 16.0768 20.1845 17.6483 18.8655C19.2284 17.5394 20.5204 15.9104 21.3886 14.6707L21.4602 14.5686C21.9829 13.8242 22.4131 13.2114 22.4131 12.3007C22.4131 11.3901 21.9829 10.7773 21.4602 10.0328L21.3886 9.93074C21.1009 9.51998 20.7682 9.06866 20.3954 8.60106Z" fill="#2D264B"/>
<path d="M15.75 12.3008C15.75 11.8762 15.4142 11.532 15 11.532C14.5858 11.532 14.25 11.8762 14.25 12.3008C14.25 13.5745 13.2427 14.6071 12 14.6071C11.5858 14.6071 11.25 14.9513 11.25 15.3759C11.25 15.8005 11.5858 16.1447 12 16.1447C14.0711 16.1447 15.75 14.4237 15.75 12.3008Z" fill="#2D264B"/>
</svg>
