<svg width="21" height="20" viewBox="0 0 21 20" fill="none" xmlns="http://www.w3.org/2000/svg">
<path d="M5.75341 9.85006H10.4999M10.4999 9.85006H15.2463M10.4999 9.85006V14.2716M10.4999 9.85006V5.42851M1.00695 15.1561V4.54441C1.00695 3.30626 1.00695 2.68672 1.26562 2.21381C1.49315 1.79783 1.85594 1.45987 2.30249 1.24791C2.81016 1.00695 3.47522 1.00695 4.80435 1.00695H16.1958C17.525 1.00695 18.1892 1.00695 18.6969 1.24791C19.1434 1.45987 19.5068 1.79783 19.7344 2.21381C19.993 2.68672 19.993 3.3058 19.993 4.54395V15.1557C19.993 16.3938 19.993 17.0129 19.7344 17.4858C19.5068 17.9018 19.1434 18.2405 18.6969 18.4524C18.1897 18.6932 17.5264 18.6932 16.1999 18.6932H4.80045C3.47392 18.6932 2.80966 18.6932 2.30249 18.4524C1.85594 18.2405 1.49315 17.9019 1.26562 17.486C1.00695 17.013 1.00695 16.3943 1.00695 15.1561Z" stroke="#D26565" stroke-width="2" stroke-linecap="round" stroke-linejoin="round"/>
</svg>
