<svg width="28" height="28" viewBox="0 0 28 28" fill="none" xmlns="http://www.w3.org/2000/svg">
<path fill-rule="evenodd" clip-rule="evenodd" d="M27.44 14.3185C27.44 13.3257 27.3509 12.3712 27.1854 11.4548H14V16.8703H21.5345C21.21 18.6203 20.2236 20.103 18.7409 21.0957V24.6085H23.2654C25.9127 22.1712 27.44 18.5821 27.44 14.3185Z" fill="#4285F4"/>
<path fill-rule="evenodd" clip-rule="evenodd" d="M14.0072 28C17.7872 28 20.9562 26.7464 23.2726 24.6082L18.7481 21.0955C17.4944 21.9355 15.8908 22.4318 14.0072 22.4318C10.3608 22.4318 7.27443 19.9691 6.17352 16.66H1.49625V20.2873C3.79988 24.8627 8.53443 28 14.0072 28Z" fill="#34A853"/>
<path fill-rule="evenodd" clip-rule="evenodd" d="M6.16636 16.6599C5.88636 15.8199 5.72727 14.9226 5.72727 13.9999C5.72727 13.0771 5.88636 12.1799 6.16636 11.3399V7.71259H1.48909C0.540909 9.60259 0 11.7408 0 13.9999C0 16.259 0.540909 18.3971 1.48909 20.2871L6.16636 16.6599Z" fill="#FBBC05"/>
<path fill-rule="evenodd" clip-rule="evenodd" d="M14.0072 5.56818C16.0626 5.56818 17.9081 6.27454 19.359 7.66181L23.3744 3.64636C20.9499 1.38727 17.7808 0 14.0072 0C8.53443 0 3.79988 3.13727 1.49625 7.71272L6.17352 11.34C7.27443 8.03091 10.3608 5.56818 14.0072 5.56818Z" fill="#EA4335"/>
</svg>
