<svg width="23" height="23" viewBox="0 0 23 23" fill="none" xmlns="http://www.w3.org/2000/svg">
<path d="M5.48565 16.086L5.95419 15.4675L5.48565 16.086ZM2.87453 9.82458L2.11968 10.0042L2.87453 9.82458ZM5.31447 15.95L5.81091 15.3537L5.31447 15.95ZM20.9501 10.2949L20.1953 10.1153L20.9501 10.2949ZM18.9241 15.6759L18.3785 15.1242L18.9241 15.6759ZM18.1159 16.3179L17.702 15.6616L18.1159 16.3179ZM20.8768 6.47447L21.4113 5.91208L20.8768 6.47447ZM21.2209 6.91403L20.5469 7.2983L21.2209 6.91403ZM1.70453 1.72974C1.6013 1.31383 1.18045 1.06036 0.764545 1.16359C0.348636 1.26682 0.095161 1.68766 0.198392 2.10357L1.70453 1.72974ZM15.2233 14.1926C15.6518 14.1926 15.9992 13.8452 15.9992 13.4167C15.9992 12.9881 15.6518 12.6407 15.2233 12.6407V14.1926ZM9.51454 12.6407C9.08601 12.6407 8.73862 12.9881 8.73862 13.4167C8.73862 13.8452 9.08601 14.1926 9.51454 14.1926V12.6407ZM1.95299 6.72766H17.5495V5.17582H1.95299V6.72766ZM12.4485 16.2723H11.9683V17.8242H12.4485V16.2723ZM3.62937 9.64497L2.70783 5.77213L1.19815 6.13136L2.11968 10.0042L3.62937 9.64497ZM11.9683 16.2723C10.2123 16.2723 8.9624 16.2711 7.99039 16.1573C7.03838 16.0459 6.43812 15.8341 5.95419 15.4675L5.0171 16.7044C5.80336 17.3001 6.70694 17.5695 7.80996 17.6986C8.89298 17.8254 10.2493 17.8242 11.9683 17.8242V16.2723ZM2.11968 10.0042C2.52042 11.6883 2.83511 13.016 3.20956 14.0463C3.59063 15.0947 4.06034 15.9155 4.81804 16.5463L5.81091 15.3537C5.34352 14.9646 4.99821 14.4245 4.66805 13.5162C4.33128 12.5896 4.03854 11.3645 3.62937 9.64497L2.11968 10.0042ZM5.95419 15.4675C5.90558 15.4307 5.85781 15.3927 5.81091 15.3537L4.81804 16.5463C4.88318 16.6006 4.94955 16.6533 5.0171 16.7044L5.95419 15.4675ZM20.1953 10.1153C19.8413 11.6028 19.5882 12.6625 19.3069 13.4739C19.0306 14.2706 18.7495 14.7574 18.3785 15.1242L19.4696 16.2277C20.0737 15.6303 20.4553 14.8988 20.7731 13.9823C21.0859 13.0803 21.3583 11.9316 21.705 10.4745L20.1953 10.1153ZM12.4485 17.8242C13.9357 17.8242 15.1092 17.8251 16.0539 17.7289C17.0144 17.631 17.8113 17.4273 18.5298 16.9742L17.702 15.6616C17.2625 15.9388 16.7287 16.1003 15.8966 16.185C15.0487 16.2714 13.9675 16.2723 12.4485 16.2723V17.8242ZM18.3785 15.1242C18.1729 15.3275 17.9461 15.5077 17.702 15.6616L18.5298 16.9742C18.8691 16.7602 19.1842 16.5099 19.4696 16.2277L18.3785 15.1242ZM17.5495 6.72766C18.4955 6.72766 19.1334 6.72905 19.6066 6.78721C20.0665 6.84373 20.2417 6.94132 20.3422 7.03685L21.4113 5.91208C20.9619 5.48489 20.3993 5.32112 19.7959 5.24696C19.2058 5.17444 18.455 5.17582 17.5495 5.17582V6.72766ZM21.705 10.4745C21.9161 9.58718 22.0922 8.85319 22.1595 8.25954C22.2283 7.65338 22.2015 7.06733 21.895 6.52976L20.5469 7.2983C20.6169 7.4212 20.6704 7.61879 20.6176 8.08455C20.5633 8.56283 20.4157 9.18905 20.1953 10.1153L21.705 10.4745ZM20.3422 7.03685C20.4226 7.11327 20.4916 7.20134 20.5469 7.2983L21.895 6.52976C21.7648 6.30133 21.6019 6.09319 21.4113 5.91208L20.3422 7.03685ZM2.70606 5.76483L1.70453 1.72974L0.198392 2.10357L1.19992 6.13866L2.70606 5.76483ZM15.2233 12.6407H9.51454V14.1926H15.2233V12.6407Z" fill="white"/>
<path d="M9.96532 20.0746C9.96532 20.6317 9.51692 21.0833 8.96379 21.0833C8.41066 21.0833 7.96226 20.6317 7.96226 20.0746C7.96226 19.5174 8.41066 19.0658 8.96379 19.0658C9.51692 19.0658 9.96532 19.5174 9.96532 20.0746Z" fill="white"/>
<path d="M15.9745 20.0746C15.9745 20.6317 15.5261 21.0833 14.973 21.0833C14.4198 21.0833 13.9714 20.6317 13.9714 20.0746C13.9714 19.5174 14.4198 19.0658 14.973 19.0658C15.5261 19.0658 15.9745 19.5174 15.9745 20.0746Z" fill="white"/>
</svg>
